<svg width="21" height="21" viewBox="0 0 21 21" fill="none" xmlns="http://www.w3.org/2000/svg">
<path d="M21 11.914V9.086C19.5554 8.57238 18.6427 8.428 18.1834 7.31938V7.3185C17.7222 6.20638 18.2709 5.45125 18.9245 4.07487L16.9251 2.0755C15.5593 2.72475 14.7962 3.27863 13.6815 2.81663H13.6806C12.5703 2.35637 12.425 1.43763 11.914 0H9.086C8.57675 1.43062 8.43062 2.3555 7.31938 2.81663H7.3185C6.20638 3.27863 5.453 2.73088 4.07487 2.0755L2.0755 4.07487C2.72738 5.44688 3.27863 6.20463 2.81663 7.3185C2.3555 8.43062 1.43062 8.57675 0 9.086V11.914C1.428 12.4215 2.3555 12.5694 2.81663 13.6806C3.28038 14.8024 2.71688 15.5759 2.0755 16.9242L4.07487 18.9245C5.44163 18.2744 6.20463 17.7214 7.3185 18.1834H7.31938C8.43062 18.6436 8.57588 19.565 9.086 21H11.914C12.4233 19.5685 12.5702 18.6462 13.6876 18.1807H13.6885C14.7928 17.7222 15.5435 18.2691 16.9242 18.9254L18.9236 16.9251C18.2726 15.5575 17.7205 14.7963 18.1816 13.6824C18.6427 12.5703 19.5711 12.4224 21 11.914ZM10.5 14C8.56713 14 7 12.4329 7 10.5C7 8.56713 8.56713 7 10.5 7C12.4329 7 14 8.56713 14 10.5C14 12.4329 12.4329 14 10.5 14Z" fill="white"/>
</svg>
