<svg width="27" height="27" viewBox="0 0 27 27" fill="none" xmlns="http://www.w3.org/2000/svg">
<path d="M16.1392 18.9463C16.1392 14.9015 13.1507 11.5635 9.25524 10.9905C8.86761 10.9332 8.47519 10.8926 8.06842 10.8926C3.61069 10.8926 0 14.498 0 18.9463C0 23.3945 3.61069 26.9999 8.06842 26.9999C10.3511 26.9999 12.4065 26.052 13.8757 24.5311C15.2754 23.0817 16.1392 21.1143 16.1392 18.9463ZM8.61158 22.6137V23.8386H7.43433V22.6997C6.63036 22.6639 5.84793 22.449 5.39091 22.184L5.75222 20.78C6.2571 21.0546 6.96536 21.3077 7.7454 21.3077C8.43213 21.3077 8.8987 21.045 8.8987 20.5651C8.8987 20.1091 8.51348 19.8225 7.62576 19.5217C6.34085 19.0919 5.46269 18.4926 5.46269 17.3298C5.46269 16.2744 6.20684 15.4483 7.49176 15.1952V14.0563H8.66661V15.1116C9.47298 15.1474 10.0137 15.3146 10.4109 15.508L10.0616 16.8618C9.75054 16.7281 9.1978 16.4535 8.33162 16.4535C7.55158 16.4535 7.29794 16.7902 7.29794 17.1244C7.29794 17.5208 7.71908 17.7715 8.74079 18.1559C10.1693 18.6597 10.7459 19.3187 10.7459 20.3956C10.7483 21.4629 9.99221 22.3726 8.61158 22.6137Z" fill="#A64EFF"/>
<path d="M26.9976 0H10.7244V3.58631H26.9976V0Z" fill="#7B70FF"/>
<path d="M26.9976 5.85229H10.7244V9.4386H26.9976V5.85229Z" fill="#7B70FF"/>
<path d="M16.18 15.2907H27.0001V11.7068H13.2153C14.4979 12.6189 15.5244 13.8605 16.18 15.2907Z" fill="#7B70FF"/>
<path d="M16.9863 18.9464C16.9863 19.6961 16.8834 20.4339 16.7015 21.1454H26.9976V17.5615H16.8666C16.9408 18.0128 16.9863 18.476 16.9863 18.9464Z" fill="#7B70FF"/>
<path d="M14.4883 25.116C13.7154 25.9159 12.8181 26.5415 11.8442 26.9999H26.9976V23.416H15.766C15.4119 24.0225 14.9883 24.5955 14.4883 25.116Z" fill="#7B70FF"/>
</svg>
