<svg width="69" height="38" viewBox="0 0 69 38" fill="none" xmlns="http://www.w3.org/2000/svg">
<path d="M0.840975 4.8254H2.7632V5.47683C3.29182 5.04254 3.93256 4.8254 4.68543 4.8254H6.43947V6.75556H4.44516C3.91654 6.75556 3.52409 6.93249 3.26779 7.28635C3.01149 7.64021 2.88334 7.98603 2.88334 8.32381V16.8889H0.840975V4.8254Z" fill="white"/>
<path d="M0.840975 4.8254H2.7632V5.47683C3.29182 5.04254 3.93256 4.8254 4.68543 4.8254H6.43947V6.75556H4.44516C3.91654 6.75556 3.52409 6.93249 3.26779 7.28635C3.01149 7.64021 2.88334 7.98603 2.88334 8.32381V16.8889H0.840975V4.8254Z" fill="white"/>
<path d="M16.732 13.0286C16.732 14.3797 16.3956 15.3608 15.7229 15.9721C15.0661 16.5833 14.0409 16.8889 12.6473 16.8889H12.3349C10.9413 16.8889 9.90812 16.5833 9.23534 15.9721C8.57857 15.3608 8.25019 14.3797 8.25019 13.0286V8.68571C8.25019 7.3346 8.57857 6.35344 9.23534 5.74222C9.90812 5.13101 10.9413 4.8254 12.3349 4.8254H12.6473C14.0409 4.8254 15.0661 5.13101 15.7229 5.74222C16.3956 6.35344 16.732 7.3346 16.732 8.68571V13.0286ZM14.6897 8.20317C14.6897 7.70455 14.5375 7.31852 14.2331 7.04508C13.9288 6.77164 13.4803 6.63492 12.8876 6.63492H12.0947C11.502 6.63492 11.0534 6.77164 10.7491 7.04508C10.4447 7.31852 10.2926 7.70455 10.2926 8.20317V13.5111C10.2926 14.0097 10.4447 14.3958 10.7491 14.6692C11.0534 14.9426 11.502 15.0794 12.0947 15.0794H12.8876C13.4803 15.0794 13.9288 14.9426 14.2331 14.6692C14.5375 14.3958 14.6897 14.0097 14.6897 13.5111V8.20317Z" fill="white"/>
<path d="M16.732 13.0286C16.732 14.3797 16.3956 15.3608 15.7229 15.9721C15.0661 16.5833 14.0409 16.8889 12.6473 16.8889H12.3349C10.9413 16.8889 9.90812 16.5833 9.23534 15.9721C8.57857 15.3608 8.25019 14.3797 8.25019 13.0286V8.68571C8.25019 7.3346 8.57857 6.35344 9.23534 5.74222C9.90812 5.13101 10.9413 4.8254 12.3349 4.8254H12.6473C14.0409 4.8254 15.0661 5.13101 15.7229 5.74222C16.3956 6.35344 16.732 7.3346 16.732 8.68571V13.0286ZM14.6897 8.20317C14.6897 7.70455 14.5375 7.31852 14.2331 7.04508C13.9288 6.77164 13.4803 6.63492 12.8876 6.63492H12.0947C11.502 6.63492 11.0534 6.77164 10.7491 7.04508C10.4447 7.31852 10.2926 7.70455 10.2926 8.20317V13.5111C10.2926 14.0097 10.4447 14.3958 10.7491 14.6692C11.0534 14.9426 11.502 15.0794 12.0947 15.0794H12.8876C13.4803 15.0794 13.9288 14.9426 14.2331 14.6692C14.5375 14.3958 14.6897 14.0097 14.6897 13.5111V8.20317Z" fill="white"/>
<path d="M28.6538 13.0286C28.6538 14.3797 28.3174 15.3608 27.6446 15.9721C26.9879 16.5833 25.9627 16.8889 24.5691 16.8889H20.3401V0H22.3825V5.30794C22.8631 4.98624 23.4638 4.8254 24.1846 4.8254H24.5691C25.9787 4.8254 27.0119 5.13101 27.6686 5.74222C28.3254 6.33736 28.6538 7.31852 28.6538 8.68571V13.0286ZM23.9443 6.63492C23.4157 6.63492 23.0233 6.77968 22.767 7.06921C22.5107 7.34265 22.3825 7.64021 22.3825 7.96191V15.0794H24.8093C25.402 15.0794 25.8505 14.9426 26.1549 14.6692C26.4592 14.3958 26.6114 14.0097 26.6114 13.5111V8.20317C26.6114 7.70455 26.4592 7.31852 26.1549 7.04508C25.8505 6.77164 25.402 6.63492 24.8093 6.63492H23.9443Z" fill="white"/>
<path d="M28.6538 13.0286C28.6538 14.3797 28.3174 15.3608 27.6446 15.9721C26.9879 16.5833 25.9627 16.8889 24.5691 16.8889H20.3401V0H22.3825V5.30794C22.8631 4.98624 23.4638 4.8254 24.1846 4.8254H24.5691C25.9787 4.8254 27.0119 5.13101 27.6686 5.74222C28.3254 6.33736 28.6538 7.31852 28.6538 8.68571V13.0286ZM23.9443 6.63492C23.4157 6.63492 23.0233 6.77968 22.767 7.06921C22.5107 7.34265 22.3825 7.64021 22.3825 7.96191V15.0794H24.8093C25.402 15.0794 25.8505 14.9426 26.1549 14.6692C26.4592 14.3958 26.6114 14.0097 26.6114 13.5111V8.20317C26.6114 7.70455 26.4592 7.31852 26.1549 7.04508C25.8505 6.77164 25.402 6.63492 24.8093 6.63492H23.9443Z" fill="white"/>
<path d="M69 13.0286C69 14.3797 68.6636 15.3608 67.9908 15.9721C67.3341 16.5833 66.3089 16.8889 64.9153 16.8889H35.5692C34.1756 16.8889 33.1424 16.5833 32.4696 15.9721C31.8129 15.3608 31.4845 14.3797 31.4845 13.0286V8.68571C31.4845 7.3346 31.8129 6.35344 32.4696 5.74222C33.1424 5.13101 34.1756 4.8254 35.5692 4.8254H64.9153C66.3089 4.8254 67.3341 5.13101 67.9908 5.74222C68.6636 6.35344 69 7.3346 69 8.68571V13.0286ZM66.9576 8.20317C66.9576 7.70455 66.8055 7.31852 66.5011 7.04508C66.1968 6.77164 65.7482 6.63492 65.1555 6.63492H35.329C34.7363 6.63492 34.2877 6.77164 33.9834 7.04508C33.679 7.31852 33.5269 7.70455 33.5269 8.20317V13.5111C33.5269 14.0097 33.679 14.3958 33.9834 14.6692C34.2877 14.9426 34.7363 15.0794 35.329 15.0794H65.1555C65.7482 15.0794 66.1968 14.9426 66.5011 14.6692C66.8055 14.3958 66.9576 14.0097 66.9576 13.5111V8.20317Z" fill="white"/>
<path d="M69 13.0286C69 14.3797 68.6636 15.3608 67.9908 15.9721C67.3341 16.5833 66.3089 16.8889 64.9153 16.8889H35.5692C34.1756 16.8889 33.1424 16.5833 32.4696 15.9721C31.8129 15.3608 31.4845 14.3797 31.4845 13.0286V8.68571C31.4845 7.3346 31.8129 6.35344 32.4696 5.74222C33.1424 5.13101 34.1756 4.8254 35.5692 4.8254H64.9153C66.3089 4.8254 67.3341 5.13101 67.9908 5.74222C68.6636 6.35344 69 7.3346 69 8.68571V13.0286ZM66.9576 8.20317C66.9576 7.70455 66.8055 7.31852 66.5011 7.04508C66.1968 6.77164 65.7482 6.63492 65.1555 6.63492H35.329C34.7363 6.63492 34.2877 6.77164 33.9834 7.04508C33.679 7.31852 33.5269 7.70455 33.5269 8.20317V13.5111C33.5269 14.0097 33.679 14.3958 33.9834 14.6692C34.2877 14.9426 34.7363 15.0794 35.329 15.0794H65.1555C65.7482 15.0794 66.1968 14.9426 66.5011 14.6692C66.8055 14.3958 66.9576 14.0097 66.9576 13.5111V8.20317Z" fill="white"/>
<path d="M7.9292 38C7.72095 38 7.48868 37.9357 7.23239 37.807C6.99211 37.6783 6.78387 37.5014 6.60766 37.2762C6.23924 37.7587 5.75067 38 5.14196 38H3.48404C2.26663 38 1.3776 37.7587 0.816947 37.2762C0.272316 36.7776 0 35.9331 0 34.7429V34.2603C0 31.7672 1.16936 30.5206 3.50807 30.5206H6.00697V29.3143C6.00697 28.8157 5.85479 28.4296 5.55044 28.1562C5.24608 27.8828 4.79756 27.746 4.20488 27.746H0.961115V25.9365H3.9646C5.35821 25.9365 6.3834 26.2421 7.04016 26.8533C7.71294 27.4646 8.04934 28.4457 8.04934 29.7968V35.5873C8.04934 35.8286 8.13744 36.0135 8.31364 36.1422C8.50586 36.2548 8.81823 36.3111 9.25073 36.3111V38H7.9292ZM4.90168 36.1905C5.38224 36.1905 5.68659 36.0779 5.81474 35.8527C5.94289 35.6275 6.00697 35.338 6.00697 34.9841V32.3302H3.48404C3.06756 32.3302 2.72316 32.4669 2.45084 32.7403C2.17853 33.0138 2.04237 33.3596 2.04237 33.7778V34.9841C2.04237 35.4023 2.13848 35.7079 2.3307 35.901C2.52293 36.094 2.82728 36.1905 3.24376 36.1905H4.90168Z" fill="white"/>
<path d="M7.9292 38C7.72095 38 7.48868 37.9357 7.23239 37.807C6.99211 37.6783 6.78387 37.5014 6.60766 37.2762C6.23924 37.7587 5.75067 38 5.14196 38H3.48404C2.26663 38 1.3776 37.7587 0.816947 37.2762C0.272316 36.7776 0 35.9331 0 34.7429V34.2603C0 31.7672 1.16936 30.5206 3.50807 30.5206H6.00697V29.3143C6.00697 28.8157 5.85479 28.4296 5.55044 28.1562C5.24608 27.8828 4.79756 27.746 4.20488 27.746H0.961115V25.9365H3.9646C5.35821 25.9365 6.3834 26.2421 7.04016 26.8533C7.71294 27.4646 8.04934 28.4457 8.04934 29.7968V35.5873C8.04934 35.8286 8.13744 36.0135 8.31364 36.1422C8.50586 36.2548 8.81823 36.3111 9.25073 36.3111V38H7.9292ZM4.90168 36.1905C5.38224 36.1905 5.68659 36.0779 5.81474 35.8527C5.94289 35.6275 6.00697 35.338 6.00697 34.9841V32.3302H3.48404C3.06756 32.3302 2.72316 32.4669 2.45084 32.7403C2.17853 33.0138 2.04237 33.3596 2.04237 33.7778V34.9841C2.04237 35.4023 2.13848 35.7079 2.3307 35.901C2.52293 36.094 2.82728 36.1905 3.24376 36.1905H4.90168Z" fill="white"/>
<path d="M18.3988 37.4451C17.8702 37.815 17.2294 38 16.4765 38H15.972C14.5623 38 13.5291 37.7024 12.8724 37.1073C12.2156 36.4961 11.8872 35.5069 11.8872 34.1397V29.7968C11.8872 28.4457 12.2156 27.4646 12.8724 26.8533C13.5451 26.2421 14.5783 25.9365 15.972 25.9365H18.2786V21.1111H20.321V38H18.3988V37.4451ZM16.7168 36.1905C17.2454 36.1905 17.6379 36.0538 17.8942 35.7803C18.1505 35.4908 18.2786 35.1852 18.2786 34.8635V27.746H15.7317C15.139 27.746 14.6905 27.8828 14.3861 28.1562C14.0818 28.4296 13.9296 28.8157 13.9296 29.3143V34.6222C13.9296 35.1208 14.0818 35.5069 14.3861 35.7803C14.6905 36.0538 15.139 36.1905 15.7317 36.1905H16.7168Z" fill="white"/>
<path d="M18.3988 37.4451C17.8702 37.815 17.2294 38 16.4765 38H15.972C14.5623 38 13.5291 37.7024 12.8724 37.1073C12.2156 36.4961 11.8872 35.5069 11.8872 34.1397V29.7968C11.8872 28.4457 12.2156 27.4646 12.8724 26.8533C13.5451 26.2421 14.5783 25.9365 15.972 25.9365H18.2786V21.1111H20.321V38H18.3988V37.4451ZM16.7168 36.1905C17.2454 36.1905 17.6379 36.0538 17.8942 35.7803C18.1505 35.4908 18.2786 35.1852 18.2786 34.8635V27.746H15.7317C15.139 27.746 14.6905 27.8828 14.3861 28.1562C14.0818 28.4296 13.9296 28.8157 13.9296 29.3143V34.6222C13.9296 35.1208 14.0818 35.5069 14.3861 35.7803C14.6905 36.0538 15.139 36.1905 15.7317 36.1905H16.7168Z" fill="white"/>
<path d="M29.2828 38H26.3274L23.0836 25.9365H25.2702L27.8652 36.287L30.3881 25.9365H32.5026L29.2828 38Z" fill="white"/>
<path d="M29.2828 38H26.3274L23.0836 25.9365H25.2702L27.8652 36.287L30.3881 25.9365H32.5026L29.2828 38Z" fill="white"/>
<path d="M35.1436 23.2825V21.1111H37.4262V23.2825H35.1436ZM35.2637 38V25.9365H37.3061V38H35.2637Z" fill="white"/>
<path d="M35.1436 23.2825V21.1111H37.4262V23.2825H35.1436ZM35.2637 38V25.9365H37.3061V38H35.2637Z" fill="white"/>
<path d="M47.4967 34.9841C47.4967 35.9975 47.1843 36.7534 46.5596 37.2521C45.9509 37.7507 45.0619 38 43.8925 38H40.7929V36.1905H44.1328C44.5653 36.1905 44.8937 36.102 45.1179 35.9251C45.3422 35.7321 45.4543 35.4586 45.4543 35.1048V33.826C45.4543 33.1022 45.1099 32.7403 44.4211 32.7403H44.0127C42.8914 32.7403 42.0504 32.499 41.4897 32.0165C40.9451 31.5179 40.6728 30.7378 40.6728 29.6762V28.9765C40.6728 27.8988 40.9771 27.1268 41.5858 26.6603C42.1946 26.1778 43.0916 25.9365 44.277 25.9365H47.0161V27.746H44.0367C43.6362 27.746 43.3159 27.8425 43.0756 28.0356C42.8353 28.2125 42.7152 28.4779 42.7152 28.8317V29.7003C42.7152 30.0703 42.8193 30.3437 43.0275 30.5206C43.2518 30.6976 43.5321 30.786 43.8685 30.786H44.2049C45.2781 30.786 46.0951 31.0514 46.6557 31.5822C47.2164 32.0969 47.4967 32.869 47.4967 33.8984V34.9841Z" fill="white"/>
<path d="M47.4967 34.9841C47.4967 35.9975 47.1843 36.7534 46.5596 37.2521C45.9509 37.7507 45.0619 38 43.8925 38H40.7929V36.1905H44.1328C44.5653 36.1905 44.8937 36.102 45.1179 35.9251C45.3422 35.7321 45.4543 35.4586 45.4543 35.1048V33.826C45.4543 33.1022 45.1099 32.7403 44.4211 32.7403H44.0127C42.8914 32.7403 42.0504 32.499 41.4897 32.0165C40.9451 31.5179 40.6728 30.7378 40.6728 29.6762V28.9765C40.6728 27.8988 40.9771 27.1268 41.5858 26.6603C42.1946 26.1778 43.0916 25.9365 44.277 25.9365H47.0161V27.746H44.0367C43.6362 27.746 43.3159 27.8425 43.0756 28.0356C42.8353 28.2125 42.7152 28.4779 42.7152 28.8317V29.7003C42.7152 30.0703 42.8193 30.3437 43.0275 30.5206C43.2518 30.6976 43.5321 30.786 43.8685 30.786H44.2049C45.2781 30.786 46.0951 31.0514 46.6557 31.5822C47.2164 32.0969 47.4967 32.869 47.4967 33.8984V34.9841Z" fill="white"/>
<path d="M58.992 34.1397C58.992 35.4908 58.6556 36.472 57.9828 37.0832C57.326 37.6944 56.3008 38 54.9072 38H54.5949C53.2013 38 52.1681 37.6944 51.4953 37.0832C50.8385 36.472 50.5101 35.4908 50.5101 34.1397V29.7968C50.5101 28.4457 50.8385 27.4646 51.4953 26.8533C52.1681 26.2421 53.2013 25.9365 54.5949 25.9365H54.9072C56.3008 25.9365 57.326 26.2421 57.9828 26.8533C58.6556 27.4646 58.992 28.4457 58.992 29.7968V34.1397ZM56.9496 29.3143C56.9496 28.8157 56.7974 28.4296 56.4931 28.1562C56.1887 27.8828 55.7402 27.746 55.1475 27.746H54.3546C53.7619 27.746 53.3134 27.8828 53.009 28.1562C52.7047 28.4296 52.5525 28.8157 52.5525 29.3143V34.6222C52.5525 35.1208 52.7047 35.5069 53.009 35.7803C53.3134 36.0538 53.7619 36.1905 54.3546 36.1905H55.1475C55.7402 36.1905 56.1887 36.0538 56.4931 35.7803C56.7974 35.5069 56.9496 35.1208 56.9496 34.6222V29.3143Z" fill="white"/>
<path d="M58.992 34.1397C58.992 35.4908 58.6556 36.472 57.9828 37.0832C57.326 37.6944 56.3008 38 54.9072 38H54.5949C53.2013 38 52.1681 37.6944 51.4953 37.0832C50.8385 36.472 50.5101 35.4908 50.5101 34.1397V29.7968C50.5101 28.4457 50.8385 27.4646 51.4953 26.8533C52.1681 26.2421 53.2013 25.9365 54.5949 25.9365H54.9072C56.3008 25.9365 57.326 26.2421 57.9828 26.8533C58.6556 27.4646 58.992 28.4457 58.992 29.7968V34.1397ZM56.9496 29.3143C56.9496 28.8157 56.7974 28.4296 56.4931 28.1562C56.1887 27.8828 55.7402 27.746 55.1475 27.746H54.3546C53.7619 27.746 53.3134 27.8828 53.009 28.1562C52.7047 28.4296 52.5525 28.8157 52.5525 29.3143V34.6222C52.5525 35.1208 52.7047 35.5069 53.009 35.7803C53.3134 36.0538 53.7619 36.1905 54.3546 36.1905H55.1475C55.7402 36.1905 56.1887 36.0538 56.4931 35.7803C56.7974 35.5069 56.9496 35.1208 56.9496 34.6222V29.3143Z" fill="white"/>
<path d="M62.6001 25.9365H64.5223V26.5879C65.0509 26.1536 65.6917 25.9365 66.4446 25.9365H68.1986V27.8667H66.2043C65.6757 27.8667 65.2832 28.0436 65.0269 28.3975C64.7706 28.7513 64.6425 29.0971 64.6425 29.4349V38H62.6001V25.9365Z" fill="white"/>
<path d="M62.6001 25.9365H64.5223V26.5879C65.0509 26.1536 65.6917 25.9365 66.4446 25.9365H68.1986V27.8667H66.2043C65.6757 27.8667 65.2832 28.0436 65.0269 28.3975C64.7706 28.7513 64.6425 29.0971 64.6425 29.4349V38H62.6001V25.9365Z" fill="white"/>
<path d="M38.9652 9.85184H40.9675V11.8624H38.9652V9.85184Z" fill="white"/>
<path d="M38.9652 9.85184H40.9675V11.8624H38.9652V9.85184Z" fill="white"/>
<path d="M59.9895 9.85184H61.9919V11.8624H59.9895V9.85184Z" fill="white"/>
<path d="M59.9895 9.85184H61.9919V11.8624H59.9895V9.85184Z" fill="white"/>
</svg>
