<svg width="27" height="27" viewBox="0 0 27 27" fill="none" xmlns="http://www.w3.org/2000/svg">
<mask id="mask0" mask-type="alpha" maskUnits="userSpaceOnUse" x="0" y="0" width="27" height="27">
<path d="M13.5 0C16.5746 0 19.4092 1.02785 21.6788 2.75868L18.9165 5.521C17.3726 4.47088 15.508 3.85714 13.5 3.85714C8.1744 3.85714 3.85714 8.1744 3.85714 13.5C3.85714 15.508 4.47088 17.3726 5.521 18.9165L2.75868 21.6788C1.02785 19.4092 0 16.5746 0 13.5C0 6.04416 6.04416 0 13.5 0Z" fill="black"/>
<path d="M13.5 23.1429C11.3764 23.1429 9.41304 22.4564 7.81988 21.2932L5.06889 24.0442C7.37911 25.8938 10.3104 27 13.5 27C16.8958 27 19.9987 25.7462 22.3711 23.6764L19.3031 21.2019C17.6885 22.4204 15.6786 23.1429 13.5 23.1429Z" fill="black"/>
<path d="M21.8601 18.3089L24.8889 20.7517C26.2255 18.6571 27 16.169 27 13.5C27 10.3104 25.8938 7.37911 24.0442 5.06889L21.2932 7.81988C22.4564 9.41304 23.1429 11.3764 23.1429 13.5C23.1429 15.2512 22.676 16.8934 21.8601 18.3089Z" fill="black"/>
</mask>
<g mask="url(#mask0)">
<rect x="10.9447" y="-15.7654" width="23.6939" height="35.8163" transform="rotate(46.7095 10.9447 -15.7654)" fill="#7B70FF"/>
<rect x="40.9478" y="-11.0205" width="23.6939" height="35.8163" transform="rotate(46.7095 40.9478 -11.0205)" fill="#C4C4C4"/>
<rect x="40.9478" y="-11.0205" width="23.6939" height="35.8163" transform="rotate(46.7095 40.9478 -11.0205)" fill="url(#paint0_linear)"/>
<rect x="14.4989" y="14.3264" width="23.6939" height="35.8163" transform="rotate(46.7095 14.4989 14.3264)" fill="#A64EFF"/>
</g>
<defs>
<linearGradient id="paint0_linear" x1="67.2923" y1="7.22056" x2="41.3876" y2="7.79881" gradientUnits="userSpaceOnUse">
<stop stop-color="#A64EFF"/>
<stop offset="1" stop-color="#7B70FF"/>
</linearGradient>
</defs>
</svg>
